<?xml version="1.0" encoding="UTF-8" standalone="no"?><!DOCTYPE svg PUBLIC "-//W3C//DTD SVG 1.1//EN" "http://www.w3.org/Graphics/SVG/1.1/DTD/svg11.dtd"><svg width="100%" height="100%" viewBox="0 0 416 119" version="1.1" xmlns="http://www.w3.org/2000/svg" xmlns:xlink="http://www.w3.org/1999/xlink" xml:space="preserve" xmlns:serif="http://www.serif.com/" style="fill-rule:evenodd;clip-rule:evenodd;stroke-linejoin:round;stroke-miterlimit:2;"><path id="outline" d="M39,595.78c0,10.762 -8.738,19.5 -19.5,19.5c-10.762,-0 -19.5,-8.738 -19.5,-19.5l0,-539.772c0,-14.854 5.901,-29.1 16.404,-39.604c10.504,-10.503 24.75,-16.404 39.604,-16.404l756.94,0c10.762,0 19.5,8.738 19.5,19.5c-0,10.762 -8.738,19.5 -19.5,19.5l-756.94,0c-4.511,-0 -8.837,1.792 -12.026,4.982c-3.19,3.189 -4.982,7.515 -4.982,12.026l-0,539.772Z" style="fill:#fff;"/><path id="frame" d="M36,595.78c0,9.107 -7.393,16.5 -16.5,16.5c-9.107,-0 -16.5,-7.393 -16.5,-16.5l0,-539.772c0,-14.058 5.585,-27.541 15.526,-37.482c9.941,-9.941 23.424,-15.526 37.482,-15.526l756.94,0c9.106,0 16.5,7.393 16.5,16.5c-0,9.107 -7.394,16.5 -16.5,16.5l-756.94,0c-5.306,-0 -10.395,2.108 -14.148,5.86c-3.752,3.753 -5.86,8.842 -5.86,14.148l-0,539.772Z" style="fill:#545454;"/><rect id="bg" x="27.64" y="28.518" width="507.838" height="508.039" style="fill:#242730;"/><rect id="tab-bg" serif:id="tab bg" x="127.625" y="30.152" width="80" height="70.668" style="fill:#2a2e38;"/><g id="tab-bar-text" serif:id="tab-bar text"><path d="M59.205,78.568c0.933,0 1.639,0.381 2.118,1.143c0.478,0.762 0.718,1.889 0.718,3.381c-0,1.492 -0.24,2.619 -0.718,3.381c-0.479,0.761 -1.185,1.142 -2.118,1.142c-0.934,0 -1.639,-0.381 -2.116,-1.142c-0.476,-0.762 -0.714,-1.889 -0.714,-3.381c-0,-1.492 0.238,-2.619 0.714,-3.381c0.477,-0.762 1.182,-1.143 2.116,-1.143Zm-0,8.11c0.554,-0 0.968,-0.295 1.239,-0.885c0.271,-0.59 0.407,-1.49 0.407,-2.701c0,-0.645 -0.039,-1.227 -0.117,-1.746l-2.789,4.365c0.293,0.644 0.713,0.967 1.26,0.967Zm-0,-7.172c-0.551,-0 -0.962,0.295 -1.234,0.885c-0.271,0.589 -0.407,1.49 -0.407,2.701c0,0.551 0.037,1.066 0.111,1.547l2.731,-4.354c-0.297,-0.519 -0.697,-0.779 -1.201,-0.779Z" style="fill:#485157;fill-rule:nonzero;"/><path d="M65.334,80.889l1.828,-0l-0,2.115l-1.828,-0l-0,-2.115Zm-0,4.423l1.828,0l-0,2.133l-1.828,0l-0,-2.133Z" style="fill:#485157;fill-rule:nonzero;"/><path d="M76.607,83.625l0,0.527l-4.67,0l0,0.035c-0.031,0.895 0.14,1.538 0.513,1.928c0.373,0.391 0.899,0.586 1.579,0.586c0.344,0 0.703,-0.055 1.078,-0.164c0.375,-0.109 0.775,-0.275 1.201,-0.498l0,1.072c-0.41,0.168 -0.805,0.294 -1.186,0.378c-0.381,0.084 -0.749,0.126 -1.105,0.126c-1.019,0 -1.816,-0.305 -2.39,-0.917c-0.575,-0.611 -0.862,-1.454 -0.862,-2.528c0,-1.047 0.282,-1.883 0.844,-2.508c0.563,-0.625 1.313,-0.937 2.25,-0.937c0.836,-0 1.495,0.283 1.978,0.849c0.482,0.567 0.739,1.25 0.77,2.051Zm-1.078,-0.316c-0.047,-0.454 -0.212,-0.845 -0.495,-1.175c-0.283,-0.33 -0.691,-0.495 -1.222,-0.495c-0.519,-0 -0.947,0.172 -1.283,0.515c-0.336,0.344 -0.52,0.731 -0.551,1.16l3.551,-0.005Z" style="fill:#62686e;fill-rule:nonzero;"/><path d="M81.23,81.551c0.133,-0.282 0.302,-0.49 0.507,-0.624c0.205,-0.135 0.452,-0.202 0.741,-0.202c0.528,-0 0.9,0.204 1.116,0.612c0.217,0.408 0.326,1.177 0.326,2.306l-0,3.802l-0.985,0l0,-3.756c0,-0.925 -0.052,-1.501 -0.155,-1.725c-0.104,-0.225 -0.292,-0.337 -0.566,-0.337c-0.312,-0 -0.526,0.12 -0.641,0.36c-0.115,0.241 -0.173,0.808 -0.173,1.702l0,3.756l-0.984,0l-0,-3.756c-0,-0.937 -0.056,-1.515 -0.167,-1.734c-0.112,-0.219 -0.312,-0.328 -0.601,-0.328c-0.285,-0 -0.483,0.12 -0.595,0.36c-0.111,0.241 -0.167,0.808 -0.167,1.702l0,3.756l-0.978,0l-0,-6.562l0.978,-0l0,0.562c0.129,-0.234 0.29,-0.413 0.484,-0.536c0.193,-0.123 0.413,-0.184 0.659,-0.184c0.297,-0 0.544,0.068 0.741,0.205c0.197,0.136 0.351,0.343 0.46,0.621Z" style="fill:#62686e;fill-rule:nonzero;"/><path d="M89.615,84.146l-1.365,0c-0.629,0 -1.103,0.111 -1.421,0.332c-0.319,0.22 -0.478,0.549 -0.478,0.987c0,0.394 0.119,0.701 0.358,0.92c0.238,0.218 0.568,0.328 0.99,0.328c0.594,-0 1.06,-0.206 1.4,-0.618c0.34,-0.412 0.512,-0.982 0.516,-1.708l-0,-0.241Zm1.084,-0.445l-0,3.744l-1.084,0l-0,-0.972c-0.231,0.39 -0.521,0.678 -0.87,0.864c-0.35,0.185 -0.775,0.278 -1.275,0.278c-0.668,0 -1.201,-0.188 -1.599,-0.565c-0.399,-0.377 -0.598,-0.882 -0.598,-1.515c0,-0.73 0.245,-1.285 0.735,-1.664c0.491,-0.379 1.21,-0.568 2.16,-0.568l1.447,-0l-0,-0.17c-0.004,-0.524 -0.137,-0.904 -0.399,-1.14c-0.261,-0.236 -0.679,-0.354 -1.253,-0.354c-0.368,-0 -0.739,0.052 -1.114,0.158c-0.375,0.105 -0.74,0.26 -1.095,0.463l-0,-1.078c0.398,-0.153 0.78,-0.267 1.145,-0.343c0.365,-0.076 0.72,-0.114 1.064,-0.114c0.543,-0 1.006,0.08 1.391,0.24c0.385,0.16 0.696,0.4 0.935,0.721c0.148,0.195 0.254,0.436 0.316,0.723c0.063,0.287 0.094,0.718 0.094,1.292Z" style="fill:#62686e;fill-rule:nonzero;"/><path d="M97.935,87.111c-0.289,0.168 -0.587,0.294 -0.893,0.378c-0.307,0.084 -0.62,0.126 -0.941,0.126c-1.015,0 -1.809,-0.304 -2.382,-0.914c-0.572,-0.609 -0.858,-1.453 -0.858,-2.531c-0,-1.078 0.286,-1.922 0.858,-2.531c0.573,-0.61 1.367,-0.914 2.382,-0.914c0.317,-0 0.625,0.041 0.926,0.123c0.301,0.082 0.604,0.209 0.908,0.38l0,1.131c-0.285,-0.254 -0.571,-0.437 -0.858,-0.55c-0.287,-0.114 -0.613,-0.17 -0.976,-0.17c-0.676,-0 -1.195,0.218 -1.558,0.656c-0.364,0.437 -0.545,1.062 -0.545,1.875c-0,0.808 0.182,1.433 0.548,1.872c0.365,0.439 0.883,0.659 1.555,0.659c0.375,0 0.711,-0.057 1.008,-0.173c0.297,-0.115 0.572,-0.294 0.826,-0.536l0,1.119Z" style="fill:#62686e;fill-rule:nonzero;"/><path d="M104.644,81.111l0,1.055c-0.308,-0.18 -0.619,-0.314 -0.931,-0.404c-0.313,-0.09 -0.631,-0.135 -0.956,-0.135c-0.488,-0 -0.852,0.079 -1.092,0.237c-0.241,0.158 -0.361,0.4 -0.361,0.724c0,0.293 0.09,0.512 0.27,0.656c0.18,0.145 0.627,0.285 1.342,0.422l0.433,0.082c0.535,0.102 0.941,0.305 1.216,0.609c0.275,0.305 0.413,0.702 0.413,1.19c0,0.648 -0.23,1.155 -0.691,1.52c-0.461,0.366 -1.102,0.548 -1.922,0.548c-0.324,0 -0.664,-0.034 -1.02,-0.102c-0.355,-0.069 -0.74,-0.171 -1.154,-0.308l0,-1.113c0.402,0.207 0.787,0.362 1.154,0.466c0.368,0.103 0.715,0.155 1.043,0.155c0.477,-0 0.846,-0.097 1.108,-0.29c0.261,-0.194 0.392,-0.464 0.392,-0.812c0,-0.5 -0.478,-0.845 -1.435,-1.037l-0.047,-0.012l-0.404,-0.082c-0.621,-0.121 -1.075,-0.325 -1.36,-0.612c-0.285,-0.287 -0.428,-0.679 -0.428,-1.175c0,-0.629 0.213,-1.114 0.639,-1.456c0.426,-0.342 1.033,-0.512 1.822,-0.512c0.352,-0 0.69,0.032 1.014,0.096c0.324,0.065 0.643,0.161 0.955,0.29Z" style="fill:#62686e;fill-rule:nonzero;"/><path d="M143.873,86.455l1.84,0l-0,-6.609l-2.204,1.06l0,-1.137l2.192,-1.042l1.183,-0l0,7.728l1.817,0l-0,0.99l-4.828,0l-0,-0.99Z" style="fill:#485157;fill-rule:nonzero;"/><path d="M152.029,80.889l1.828,-0l0,2.115l-1.828,-0l-0,-2.115Zm-0,4.423l1.828,0l0,2.133l-1.828,0l-0,-2.133Z" style="fill:#485157;fill-rule:nonzero;"/><path d="M162.898,83.379l0,4.066l-1.084,0l0,-4.066c0,-0.59 -0.103,-1.024 -0.31,-1.301c-0.207,-0.277 -0.532,-0.416 -0.973,-0.416c-0.504,0 -0.892,0.179 -1.163,0.536c-0.272,0.358 -0.407,0.87 -0.407,1.538l-0,3.709l-1.079,0l0,-6.562l1.079,-0l-0,0.984c0.191,-0.375 0.451,-0.659 0.779,-0.852c0.328,-0.194 0.717,-0.29 1.166,-0.29c0.668,-0 1.167,0.219 1.497,0.659c0.33,0.439 0.495,1.104 0.495,1.995Z" style="fill:#51afef;fill-rule:nonzero;"/><path d="M167.574,81.639c-0.547,-0 -0.961,0.213 -1.242,0.638c-0.282,0.426 -0.422,1.057 -0.422,1.893c-0,0.832 0.14,1.462 0.422,1.89c0.281,0.427 0.695,0.641 1.242,0.641c0.551,0 0.967,-0.214 1.248,-0.641c0.281,-0.428 0.422,-1.058 0.422,-1.89c-0,-0.836 -0.141,-1.467 -0.422,-1.893c-0.281,-0.425 -0.697,-0.638 -1.248,-0.638Zm-0,-0.914c0.91,-0 1.606,0.294 2.089,0.884c0.482,0.59 0.723,1.444 0.723,2.561c0,1.121 -0.24,1.975 -0.72,2.563c-0.481,0.588 -1.178,0.882 -2.092,0.882c-0.91,0 -1.606,-0.294 -2.086,-0.882c-0.481,-0.588 -0.721,-1.442 -0.721,-2.563c0,-1.117 0.24,-1.971 0.721,-2.561c0.48,-0.59 1.176,-0.884 2.086,-0.884Z" style="fill:#51afef;fill-rule:nonzero;"/><path d="M174.787,79.019l-0,1.864l2.449,-0l-0,0.838l-2.449,-0l-0,3.562c-0,0.485 0.092,0.822 0.275,1.014c0.184,0.191 0.504,0.287 0.961,0.287l1.213,-0l-0,0.861l-1.318,0c-0.809,0 -1.379,-0.162 -1.711,-0.486c-0.332,-0.324 -0.498,-0.883 -0.498,-1.676l-0,-3.562l-1.752,-0l-0,-0.838l1.752,-0l-0,-1.864l1.078,0Z" style="fill:#51afef;fill-rule:nonzero;"/><path d="M184.631,87.111c-0.29,0.168 -0.587,0.294 -0.894,0.378c-0.307,0.084 -0.62,0.126 -0.94,0.126c-1.016,0 -1.81,-0.304 -2.382,-0.914c-0.573,-0.609 -0.859,-1.453 -0.859,-2.531c0,-1.078 0.286,-1.922 0.859,-2.531c0.572,-0.61 1.366,-0.914 2.382,-0.914c0.316,-0 0.625,0.041 0.925,0.123c0.301,0.082 0.604,0.209 0.909,0.38l-0,1.131c-0.286,-0.254 -0.572,-0.437 -0.859,-0.55c-0.287,-0.114 -0.612,-0.17 -0.975,-0.17c-0.676,-0 -1.196,0.218 -1.559,0.656c-0.363,0.437 -0.545,1.062 -0.545,1.875c0,0.808 0.183,1.433 0.548,1.872c0.365,0.439 0.884,0.659 1.556,0.659c0.375,0 0.71,-0.057 1.007,-0.173c0.297,-0.115 0.573,-0.294 0.827,-0.536l-0,1.119Z" style="fill:#51afef;fill-rule:nonzero;"/><path d="M191.797,83.379l-0,4.066l-1.084,0l-0,-4.066c-0,-0.59 -0.104,-1.024 -0.311,-1.301c-0.207,-0.277 -0.531,-0.416 -0.973,-0.416c-0.504,0 -0.891,0.179 -1.163,0.536c-0.271,0.358 -0.407,0.87 -0.407,1.538l0,3.709l-1.078,0l-0,-9.117l1.078,0l0,3.539c0.191,-0.375 0.451,-0.659 0.779,-0.852c0.328,-0.194 0.717,-0.29 1.166,-0.29c0.668,-0 1.167,0.219 1.497,0.659c0.33,0.439 0.496,1.104 0.496,1.995Z" style="fill:#51afef;fill-rule:nonzero;"/><path d="M231.172,86.449l4.019,0l0,0.996l-5.314,0l-0,-0.996c0.73,-0.769 1.369,-1.449 1.916,-2.039c0.546,-0.59 0.923,-1.006 1.13,-1.248c0.391,-0.476 0.655,-0.862 0.791,-1.157c0.137,-0.295 0.206,-0.597 0.206,-0.905c-0,-0.489 -0.144,-0.872 -0.431,-1.149c-0.287,-0.277 -0.681,-0.416 -1.181,-0.416c-0.355,0 -0.728,0.065 -1.119,0.193c-0.391,0.129 -0.805,0.325 -1.242,0.586l-0,-1.195c0.402,-0.191 0.798,-0.336 1.186,-0.433c0.389,-0.098 0.773,-0.147 1.152,-0.147c0.855,0 1.544,0.228 2.065,0.683c0.522,0.455 0.782,1.051 0.782,1.79c0,0.375 -0.086,0.75 -0.26,1.125c-0.174,0.375 -0.456,0.789 -0.847,1.242c-0.219,0.254 -0.536,0.605 -0.952,1.055c-0.416,0.449 -1.05,1.121 -1.901,2.015Z" style="fill:#485157;fill-rule:nonzero;"/><path d="M238.724,80.889l1.828,-0l0,2.115l-1.828,-0l0,-2.115Zm0,4.423l1.828,0l0,2.133l-1.828,0l0,-2.133Z" style="fill:#485157;fill-rule:nonzero;"/><path d="M247.396,81.551c0.133,-0.282 0.302,-0.49 0.507,-0.624c0.205,-0.135 0.452,-0.202 0.741,-0.202c0.528,-0 0.9,0.204 1.116,0.612c0.217,0.408 0.326,1.177 0.326,2.306l-0,3.802l-0.985,0l0,-3.756c0,-0.925 -0.052,-1.501 -0.155,-1.725c-0.104,-0.225 -0.292,-0.337 -0.565,-0.337c-0.313,-0 -0.527,0.12 -0.642,0.36c-0.115,0.241 -0.173,0.808 -0.173,1.702l0,3.756l-0.984,0l-0,-3.756c-0,-0.937 -0.056,-1.515 -0.167,-1.734c-0.112,-0.219 -0.312,-0.328 -0.601,-0.328c-0.285,-0 -0.483,0.12 -0.595,0.36c-0.111,0.241 -0.167,0.808 -0.167,1.702l0,3.756l-0.978,0l-0,-6.562l0.978,-0l0,0.562c0.129,-0.234 0.29,-0.413 0.484,-0.536c0.193,-0.123 0.413,-0.184 0.659,-0.184c0.297,-0 0.544,0.068 0.741,0.205c0.197,0.136 0.351,0.343 0.46,0.621Z" style="fill:#62686e;fill-rule:nonzero;"/><path d="M252.511,80.906l2.76,0l0,5.701l2.139,0l-0,0.838l-5.356,0l0,-0.838l2.139,0l0,-4.863l-1.682,0l0,-0.838Zm1.682,-2.549l1.078,0l0,1.36l-1.078,-0l0,-1.36Z" style="fill:#62686e;fill-rule:nonzero;"/><path d="M263.586,81.111l-0,1.055c-0.309,-0.18 -0.62,-0.314 -0.932,-0.404c-0.313,-0.09 -0.631,-0.135 -0.955,-0.135c-0.488,-0 -0.853,0.079 -1.093,0.237c-0.24,0.158 -0.36,0.4 -0.36,0.724c-0,0.293 0.09,0.512 0.269,0.656c0.18,0.145 0.627,0.285 1.342,0.422l0.434,0.082c0.535,0.102 0.94,0.305 1.215,0.609c0.276,0.305 0.414,0.702 0.414,1.19c-0,0.648 -0.231,1.155 -0.692,1.52c-0.461,0.366 -1.101,0.548 -1.922,0.548c-0.324,0 -0.664,-0.034 -1.019,-0.102c-0.356,-0.069 -0.74,-0.171 -1.155,-0.308l0,-1.113c0.403,0.207 0.788,0.362 1.155,0.466c0.367,0.103 0.715,0.155 1.043,0.155c0.476,-0 0.845,-0.097 1.107,-0.29c0.262,-0.194 0.393,-0.464 0.393,-0.812c-0,-0.5 -0.479,-0.845 -1.436,-1.037l-0.047,-0.012l-0.404,-0.082c-0.621,-0.121 -1.074,-0.325 -1.359,-0.612c-0.286,-0.287 -0.428,-0.679 -0.428,-1.175c-0,-0.629 0.213,-1.114 0.639,-1.456c0.425,-0.342 1.033,-0.512 1.822,-0.512c0.351,-0 0.689,0.032 1.014,0.096c0.324,0.065 0.642,0.161 0.955,0.29Z" style="fill:#62686e;fill-rule:nonzero;"/><path d="M271.326,87.111c-0.289,0.168 -0.587,0.294 -0.894,0.378c-0.306,0.084 -0.62,0.126 -0.94,0.126c-1.016,0 -1.81,-0.304 -2.382,-0.914c-0.572,-0.609 -0.858,-1.453 -0.858,-2.531c-0,-1.078 0.286,-1.922 0.858,-2.531c0.572,-0.61 1.366,-0.914 2.382,-0.914c0.316,-0 0.625,0.041 0.926,0.123c0.3,0.082 0.603,0.209 0.908,0.38l-0,1.131c-0.285,-0.254 -0.571,-0.437 -0.859,-0.55c-0.287,-0.114 -0.612,-0.17 -0.975,-0.17c-0.676,-0 -1.195,0.218 -1.559,0.656c-0.363,0.437 -0.545,1.062 -0.545,1.875c0,0.808 0.183,1.433 0.548,1.872c0.365,0.439 0.884,0.659 1.556,0.659c0.375,0 0.711,-0.057 1.008,-0.173c0.297,-0.115 0.572,-0.294 0.826,-0.536l-0,1.119Z" style="fill:#62686e;fill-rule:nonzero;"/><rect x="274.613" y="85.078" width="2.063" height="2.367" style="fill:#62686e;fill-rule:nonzero;"/></g><g id="code"><path d="M61.481,107.172l-3.553,4.465l2.689,-0l0.864,-4.465Zm0.022,-1.236l1.325,-0l-1.08,5.701l1.125,-0l-0.17,0.961l-1.132,-0l-0.397,2.086l-1.126,-0l0.392,-2.086l-3.603,-0l0.205,-1.12l4.461,-5.542Z" style="fill:#484854;fill-rule:nonzero;"/><path d="M68.034,110.002c0.432,0.078 0.769,0.277 1.011,0.598c0.243,0.32 0.364,0.726 0.364,1.218c0,0.914 -0.317,1.649 -0.952,2.203c-0.635,0.555 -1.482,0.832 -2.543,0.832c-0.409,0 -0.808,-0.036 -1.197,-0.108c-0.388,-0.072 -0.76,-0.181 -1.116,-0.325l0.216,-1.178c0.344,0.203 0.697,0.357 1.057,0.46c0.36,0.104 0.725,0.155 1.097,0.155c0.689,0 1.246,-0.182 1.671,-0.547c0.424,-0.366 0.636,-0.839 0.636,-1.421c0,-0.457 -0.135,-0.804 -0.406,-1.04c-0.271,-0.237 -0.668,-0.355 -1.191,-0.355l-0.87,0l0.182,-0.973l0.876,0c0.598,0 1.074,-0.146 1.426,-0.439c0.353,-0.293 0.529,-0.682 0.529,-1.166c-0,-0.391 -0.117,-0.679 -0.35,-0.864c-0.233,-0.186 -0.594,-0.279 -1.083,-0.279c-0.31,0 -0.649,0.039 -1.017,0.118c-0.367,0.078 -0.765,0.195 -1.193,0.351l0.21,-1.09c0.466,-0.129 0.883,-0.223 1.25,-0.284c0.368,-0.06 0.711,-0.091 1.029,-0.091c0.712,0 1.273,0.172 1.682,0.516c0.41,0.344 0.614,0.812 0.614,1.406c0,0.598 -0.169,1.099 -0.509,1.503c-0.339,0.404 -0.813,0.671 -1.423,0.8Z" style="fill:#484854;fill-rule:nonzero;"/><path d="M80.231,112.568l1.773,0l0,1.553l-1.12,2.238l-1.216,0l0.563,-2.238l-0,-1.553Zm-0.074,-4.441l1.773,-0l0,2.115l-1.773,0l-0,-2.115Z" style="fill:#62686e;fill-rule:nonzero;"/><path d="M87.239,112.568l1.773,0l-0,1.553l-1.12,2.238l-1.216,0l0.563,-2.238l-0,-1.553Zm-0.074,-4.441l1.773,-0l-0,2.115l-1.773,0l-0,-2.115Z" style="fill:#62686e;fill-rule:nonzero;"/><path d="M94.246,112.568l1.774,0l-0,1.553l-1.12,2.238l-1.216,0l0.562,-2.238l0,-1.553Zm-0.073,-4.441l1.773,-0l-0,2.115l-1.773,0l-0,-2.115Z" style="fill:#62686e;fill-rule:nonzero;"/><path d="M111.849,114.373c-0.292,0.16 -0.592,0.28 -0.898,0.36c-0.307,0.08 -0.633,0.12 -0.978,0.12c-1.087,0 -1.931,-0.396 -2.532,-1.189c-0.601,-0.793 -0.901,-1.908 -0.901,-3.346c0,-1.429 0.302,-2.544 0.907,-3.342c0.604,-0.799 1.446,-1.199 2.526,-1.199c0.345,0 0.671,0.04 0.978,0.12c0.306,0.081 0.606,0.201 0.898,0.361l-0,1.213c-0.281,-0.239 -0.582,-0.42 -0.904,-0.545c-0.322,-0.125 -0.646,-0.188 -0.972,-0.188c-0.746,0 -1.305,0.297 -1.677,0.891c-0.371,0.594 -0.557,1.49 -0.557,2.689c0,1.196 0.186,2.09 0.557,2.684c0.372,0.594 0.931,0.891 1.677,0.891c0.333,-0 0.66,-0.063 0.98,-0.188c0.321,-0.125 0.619,-0.307 0.896,-0.545l-0,1.213Z" style="fill:#62686e;fill-rule:nonzero;"/><path d="M116.259,108.877c-0.53,-0 -0.932,0.213 -1.205,0.639c-0.273,0.425 -0.409,1.056 -0.409,1.892c-0,0.832 0.136,1.462 0.409,1.89c0.273,0.428 0.675,0.641 1.205,0.641c0.534,0 0.938,-0.213 1.211,-0.641c0.272,-0.428 0.409,-1.058 0.409,-1.89c-0,-0.836 -0.137,-1.467 -0.409,-1.892c-0.273,-0.426 -0.677,-0.639 -1.211,-0.639Zm0,-0.914c0.883,-0 1.558,0.295 2.026,0.885c0.468,0.589 0.702,1.443 0.702,2.56c0,1.121 -0.233,1.976 -0.699,2.564c-0.466,0.588 -1.142,0.881 -2.029,0.881c-0.883,0 -1.557,-0.293 -2.023,-0.881c-0.466,-0.588 -0.699,-1.443 -0.699,-2.564c-0,-1.117 0.233,-1.971 0.699,-2.56c0.466,-0.59 1.14,-0.885 2.023,-0.885Z" style="fill:#62686e;fill-rule:nonzero;"/><path d="M124.642,108.959l0,-3.393l1.046,0l0,9.118l-1.046,-0l0,-0.827c-0.174,0.325 -0.406,0.572 -0.696,0.742c-0.29,0.17 -0.624,0.254 -1.003,0.254c-0.769,0 -1.375,-0.307 -1.816,-0.922c-0.441,-0.616 -0.662,-1.464 -0.662,-2.546c-0,-1.067 0.222,-1.904 0.665,-2.511c0.443,-0.607 1.048,-0.911 1.813,-0.911c0.383,-0 0.72,0.085 1.012,0.255c0.291,0.17 0.521,0.417 0.687,0.741Zm-3.074,2.449c-0,0.836 0.128,1.467 0.386,1.893c0.258,0.426 0.638,0.638 1.142,0.638c0.504,0 0.888,-0.214 1.151,-0.644c0.264,-0.43 0.395,-1.059 0.395,-1.887c0,-0.832 -0.131,-1.462 -0.395,-1.889c-0.263,-0.428 -0.647,-0.642 -1.151,-0.642c-0.504,-0 -0.884,0.213 -1.142,0.639c-0.258,0.425 -0.386,1.056 -0.386,1.892Z" style="fill:#62686e;fill-rule:nonzero;"/><path d="M133.139,110.863l0,0.528l-4.53,-0l0,0.035c-0.03,0.894 0.136,1.537 0.498,1.927c0.362,0.391 0.872,0.586 1.532,0.586c0.333,0 0.682,-0.054 1.045,-0.164c0.364,-0.109 0.752,-0.275 1.165,-0.498l0,1.073c-0.397,0.168 -0.781,0.294 -1.15,0.378c-0.37,0.083 -0.727,0.125 -1.072,0.125c-0.989,0 -1.762,-0.305 -2.319,-0.917c-0.557,-0.611 -0.835,-1.454 -0.835,-2.528c-0,-1.047 0.273,-1.883 0.818,-2.508c0.546,-0.625 1.273,-0.937 2.183,-0.937c0.811,-0 1.45,0.283 1.918,0.849c0.468,0.567 0.717,1.25 0.747,2.051Zm-1.045,-0.316c-0.046,-0.453 -0.206,-0.845 -0.481,-1.175c-0.274,-0.33 -0.669,-0.495 -1.185,-0.495c-0.504,-0 -0.919,0.172 -1.244,0.516c-0.326,0.343 -0.504,0.73 -0.535,1.16l3.445,-0.006Z" style="fill:#62686e;fill-rule:nonzero;"/><path d="M136.22,108.127l1.773,-0l0,2.115l-1.773,0l-0,-2.115Zm-0,4.424l1.773,-0l0,2.133l-1.773,-0l-0,-2.133Z" style="fill:#62686e;fill-rule:nonzero;"/><path d="M61.481,121.172l-3.553,4.465l2.689,-0l0.864,-4.465Zm0.022,-1.236l1.325,-0l-1.08,5.701l1.125,-0l-0.17,0.961l-1.132,-0l-0.397,2.086l-1.126,-0l0.392,-2.086l-3.603,-0l0.205,-1.12l4.461,-5.542Z" style="fill:#484854;fill-rule:nonzero;"/><path d="M68.488,121.172l-3.552,4.465l2.689,-0l0.863,-4.465Zm0.023,-1.236l1.324,-0l-1.079,5.701l1.125,-0l-0.171,0.961l-1.131,-0l-0.397,2.086l-1.126,-0l0.392,-2.086l-3.603,-0l0.205,-1.12l4.461,-5.542Z" style="fill:#484854;fill-rule:nonzero;"/></g><path id="bezel" d="M313.96,32.5l-257.952,0c-6.234,-0 -12.214,2.477 -16.623,6.885c-4.408,4.409 -6.885,10.388 -6.885,16.623l0,539.772c0,7.175 -5.825,13 -13,13c-7.175,-0 -13,-5.825 -13,-13l0,-539.772c0,-13.13 5.216,-25.723 14.501,-35.007c9.284,-9.285 21.877,-14.501 35.007,-14.501l756.94,0c7.175,0 13,5.825 13,13c-0,7.175 -5.825,13 -13,13l-120.752,0c0,0.033 0,0.066 0,0.099l0,41.476c0,11.446 -9.292,20.738 -20.738,20.738l-303.866,0c-11.446,0 -20.738,-9.292 -20.738,-20.738l-0,-29.22c-0,-3.251 -1.292,-6.368 -3.59,-8.667c-2.299,-2.298 -5.416,-3.589 -8.666,-3.589l-20.638,-0l0,-0.099Z"/></svg>